#define cherry_width 224
#define cherry_height 104
static unsigned char cherry_bits[] = {
	0x0, 0x0, 0x0, 0x0, 0x0, 0x0, 0x0, 0x0, 0x0, 0x0, 0x0, 0x0, 0x0, 0x0, 0x0, 0x0, 0x0, 0x0, 0x0, 0x0, 0x0, 0x0, 0x0, 0x0, 0x0, 0x0, 0x0, 0x0, 
	0x0, 0x0, 0x0, 0x0, 0x0, 0x0, 0x0, 0x10, 0x2, 0x0, 0x0, 0x0, 0x0, 0x40, 0x0, 0x0, 0x0, 0x0, 0x0, 0x0, 0x0, 0x0, 0x0, 0x0, 0x0, 0x0, 0x0, 0x0, 
	0x0, 0x4, 0x85, 0x82, 0x20, 0x21, 0x30, 0x8, 0x4, 0x0, 0x0, 0x0, 0x0, 0x40, 0x1c, 0x4, 0x87, 0x3, 0xf1, 0x71, 0x7c, 0x1c, 0xe, 0x0, 0x0, 0x0, 0x0, 0x38, 
	0x0, 0x4, 0x85, 0xc2, 0x51, 0x51, 0x10, 0x8, 0x4, 0x0, 0x0, 0x0, 0x0, 0x20, 0x22, 0x86, 0x48, 0x84, 0x11, 0x8, 0x40, 0x22, 0x11, 0x0, 0x0, 0x0, 0x0, 0x44, 
	0x0, 0x4, 0xc5, 0xa7, 0xd2, 0x50, 0x8, 0x4, 0x8, 0x0, 0x0, 0x0, 0x0, 0x20, 0x22, 0x85, 0x8, 0x84, 0x11, 0x8, 0x40, 0x22, 0x11, 0x6, 0x3, 0x4, 0x8, 0x44, 
	0x0, 0x4, 0x80, 0xa2, 0xa0, 0x20, 0x0, 0x4, 0x8, 0x5, 0x1, 0x0, 0x0, 0x10, 0x32, 0x4, 0x8, 0x44, 0x11, 0x8, 0x20, 0x22, 0x11, 0x6, 0x3, 0x3, 0x30, 0x40, 
	0x0, 0x4, 0x80, 0xc2, 0x40, 0x30, 0x0, 0x4, 0x8, 0x2, 0x1, 0x0, 0x0, 0x10, 0x2a, 0x4, 0x4, 0x43, 0xf1, 0x78, 0x20, 0x1c, 0x1e, 0x0, 0xc0, 0xf0, 0xc1, 0x30, 
	0x0, 0x4, 0x80, 0x82, 0xa1, 0x48, 0x1, 0x4, 0x88, 0xcf, 0x7, 0xf0, 0x1, 0x10, 0x26, 0x4, 0x2, 0x24, 0x1, 0x89, 0x10, 0x22, 0x10, 0x0, 0x20, 0x0, 0x0, 0x11, 
	0x0, 0x0, 0xc0, 0x87, 0x62, 0x49, 0x1, 0x4, 0x8, 0x2, 0x1, 0x0, 0x0, 0x8, 0x22, 0x4, 0x1, 0xe4, 0x3, 0x89, 0x10, 0x22, 0x10, 0x0, 0xc0, 0xf0, 0xc1, 0x0, 
	0x0, 0x4, 0x80, 0xa2, 0x52, 0x89, 0x0, 0x8, 0x4, 0x5, 0x81, 0x1, 0x60, 0x8, 0x22, 0x84, 0x40, 0x4, 0x1, 0x89, 0x8, 0x22, 0x10, 0x6, 0x3, 0x3, 0x30, 0x10, 
	0x0, 0x4, 0x80, 0xc2, 0x91, 0x70, 0x1, 0x8, 0x4, 0x0, 0x80, 0x0, 0x60, 0x4, 0x1c, 0x84, 0x8f, 0x3, 0xf1, 0x70, 0x8, 0x1c, 0xe, 0x6, 0x1, 0x4, 0x8, 0x10, 
	0x0, 0x0, 0x0, 0x80, 0x0, 0x0, 0x0, 0x10, 0x2, 0x0, 0x40, 0x0, 0x0, 0x4, 0x0, 0x0, 0x0, 0x0, 0x0, 0x0, 0x0, 0x0, 0x0, 0x80, 0x0, 0x0, 0x0, 0x0, 
	0x0, 0x0, 0x0, 0x0, 0x0, 0x0, 0x0, 0x0, 0x0, 0x0, 0x0, 0x0, 0x0, 0x0, 0x0, 0x0, 0x0, 0x0, 0x0, 0x0, 0x0, 0x0, 0x0, 0x0, 0x0, 0x0, 0x0, 0x0, 
	0x0, 0x0, 0x0, 0x0, 0x0, 0x0, 0x0, 0x0, 0x0, 0x0, 0x0, 0x0, 0x0, 0x0, 0x0, 0x0, 0x0, 0x0, 0x0, 0x0, 0x0, 0x0, 0x0, 0x0, 0x0, 0x0, 0x0, 0x0, 
	0x0, 0x0, 0x0, 0x0, 0x0, 0x0, 0x0, 0x0, 0x0, 0x0, 0x0, 0x0, 0x0, 0x0, 0x0, 0x0, 0x0, 0x0, 0x0, 0x0, 0x0, 0x0, 0x0, 0xc0, 0x23, 0xe0, 0x1, 0x0, 
	0x1c, 0x8c, 0x87, 0xe3, 0xf0, 0xf9, 0x38, 0x22, 0x1f, 0x4f, 0x24, 0x10, 0x89, 0x38, 0x1e, 0x8e, 0x87, 0xe3, 0x13, 0x9, 0x45, 0x22, 0x91, 0x4f, 0x20, 0x0, 0x21, 0x0, 
	0x22, 0x8c, 0x48, 0x24, 0x11, 0x8, 0x44, 0x22, 0x4, 0x44, 0x24, 0xb0, 0x89, 0x44, 0x22, 0x91, 0x48, 0x84, 0x10, 0x9, 0x45, 0x22, 0x11, 0x48, 0x40, 0x0, 0x51, 0x0, 
	0x3a, 0x92, 0x48, 0x20, 0x12, 0x8, 0x4, 0x22, 0x4, 0x44, 0x22, 0x50, 0x99, 0x44, 0x22, 0x91, 0x48, 0x80, 0x10, 0x9, 0x45, 0x14, 0xa, 0x44, 0x40, 0x0, 0x89, 0x0, 
	0x2a, 0x92, 0x48, 0x20, 0x12, 0x8, 0x4, 0x22, 0x4, 0x44, 0x22, 0x50, 0x99, 0x44, 0x22, 0x91, 0x48, 0x80, 0x10, 0x91, 0x44, 0x14, 0xa, 0x44, 0x80, 0x0, 0x1, 0x0, 
	0x2a, 0x92, 0x47, 0x20, 0xf2, 0x78, 0x64, 0x3e, 0x4, 0xc4, 0x21, 0x10, 0xa9, 0x44, 0x1e, 0x91, 0x87, 0x83, 0x10, 0x91, 0x44, 0x8, 0xa, 0x42, 0x80, 0x0, 0x1, 0x0, 
	0x2a, 0x9e, 0x48, 0x20, 0x12, 0x8, 0x44, 0x22, 0x4, 0x44, 0x22, 0x10, 0xc9, 0x44, 0x2, 0x91, 0x4, 0x84, 0x10, 0x91, 0x54, 0x14, 0x4, 0x41, 0x80, 0x0, 0x1, 0x0, 
	0x32, 0xa1, 0x48, 0x20, 0x12, 0x8, 0x44, 0x22, 0x84, 0x44, 0x22, 0x10, 0xc9, 0x44, 0x2, 0x91, 0x4, 0x84, 0x10, 0x91, 0x54, 0x14, 0x4, 0x41, 0x0, 0x1, 0x1, 0x0, 
	0x2, 0xa1, 0x48, 0x24, 0x11, 0x8, 0x44, 0x22, 0x84, 0x44, 0x24, 0x10, 0x89, 0x44, 0x2, 0x95, 0x48, 0x84, 0x10, 0x61, 0x6c, 0x22, 0x84, 0x40, 0x0, 0x1, 0x1, 0x0, 
	0x3c, 0xa1, 0x87, 0xe3, 0xf0, 0x9, 0x38, 0x22, 0x1f, 0x43, 0xe4, 0x13, 0x89, 0x38, 0x2, 0x8e, 0x88, 0x83, 0xe0, 0x60, 0x44, 0x22, 0x84, 0x4f, 0x0, 0x2, 0x1, 0x7c, 
	0x0, 0x0, 0x0, 0x0, 0x0, 0x0, 0x0, 0x0, 0x0, 0x0, 0x0, 0x0, 0x0, 0x0, 0x0, 0x10, 0x0, 0x0, 0x0, 0x0, 0x0, 0x0, 0x0, 0xc0, 0x3, 0xe2, 0x1, 0x0, 
	0x0, 0x0, 0x0, 0x0, 0x0, 0x0, 0x0, 0x0, 0x0, 0x0, 0x0, 0x0, 0x0, 0x0, 0x0, 0x0, 0x0, 0x0, 0x0, 0x0, 0x0, 0x0, 0x0, 0x0, 0x0, 0x0, 0x0, 0x0, 
	0x0, 0x0, 0x0, 0x0, 0x0, 0x0, 0x0, 0x0, 0x0, 0x0, 0x0, 0x0, 0x0, 0x0, 0x0, 0x0, 0x0, 0x0, 0x0, 0x0, 0x0, 0x0, 0x0, 0x0, 0x0, 0x0, 0x0, 0xfe, 
	0x0, 0x0, 0x0, 0x0, 0x0, 0x0, 0x0, 0x0, 0x4, 0x2, 0x0, 0x0, 0x0, 0x0, 0x0, 0x0, 0x0, 0x0, 0x0, 0x0, 0x0, 0x0, 0x0, 0x0, 0x83, 0x60, 0x0, 0xfe, 
	0xc, 0x80, 0x0, 0x0, 0x2, 0xe0, 0x0, 0x2, 0x4, 0x42, 0xc0, 0x0, 0x0, 0x0, 0x0, 0x0, 0x0, 0x40, 0x0, 0x0, 0x0, 0x0, 0x0, 0x80, 0x80, 0x80, 0x0, 0xfe, 
	0x8, 0x80, 0x0, 0x0, 0x2, 0x10, 0x0, 0x2, 0x0, 0x40, 0x80, 0x0, 0x0, 0x0, 0x0, 0x0, 0x0, 0x40, 0x0, 0x0, 0x0, 0x0, 0x0, 0x80, 0x80, 0x80, 0x0, 0xfe, 
	0x10, 0x8e, 0x86, 0xc3, 0xe2, 0x78, 0x78, 0x1a, 0x86, 0x43, 0x84, 0x10, 0x69, 0x38, 0x1a, 0x96, 0x8e, 0xe3, 0x11, 0x89, 0x44, 0x22, 0x91, 0x8f, 0x80, 0x80, 0x0, 0xfe, 
	0x0, 0x90, 0x49, 0x24, 0x13, 0x11, 0x44, 0x26, 0x4, 0x42, 0x82, 0xb0, 0x99, 0x44, 0x26, 0x99, 0x41, 0x44, 0x10, 0x89, 0x44, 0x22, 0x11, 0x88, 0x80, 0x80, 0x30, 0xff, 
	0x0, 0x90, 0x48, 0x20, 0x12, 0x11, 0x44, 0x22, 0x4, 0x42, 0x81, 0x50, 0x89, 0x44, 0x22, 0x91, 0x40, 0x40, 0x10, 0x51, 0x44, 0x14, 0x11, 0x64, 0x80, 0x0, 0x6b, 0xff, 
	0x0, 0x9e, 0x48, 0x20, 0xf2, 0x11, 0x44, 0x22, 0x4, 0xc2, 0x80, 0x50, 0x89, 0x44, 0x22, 0x91, 0x80, 0x43, 0x10, 0x51, 0x54, 0x8, 0x11, 0x82, 0x80, 0x80, 0xc8, 0xfe, 
	0x0, 0x91, 0x48, 0x20, 0x12, 0x10, 0x44, 0x22, 0x4, 0x42, 0x81, 0x10, 0x89, 0x44, 0x22, 0x91, 0x0, 0x44, 0x10, 0x51, 0x54, 0x14, 0x11, 0x81, 0x80, 0x80, 0x0, 0xfe, 
	0x0, 0x91, 0x48, 0x24, 0x12, 0x10, 0x64, 0x22, 0x4, 0x42, 0x82, 0x10, 0x89, 0x44, 0x22, 0x91, 0x40, 0x44, 0x90, 0x21, 0x6c, 0x22, 0x99, 0x80, 0x80, 0x80, 0x0, 0xfe, 
	0x0, 0x9e, 0x87, 0xc3, 0xe3, 0x11, 0x58, 0x22, 0xe, 0x42, 0xc4, 0x11, 0x89, 0x38, 0x1e, 0x9e, 0x80, 0x83, 0x61, 0x21, 0x44, 0x22, 0x96, 0x8f, 0x80, 0x80, 0x0, 0xfe, 
	0x0, 0x0, 0x0, 0x0, 0x0, 0x0, 0x40, 0x0, 0x0, 0x2, 0x0, 0x0, 0x0, 0x0, 0x2, 0x10, 0x0, 0x0, 0x0, 0x0, 0x0, 0x0, 0x10, 0x0, 0x83, 0x60, 0x0, 0xfe, 
	0x0, 0x0, 0x0, 0x0, 0x0, 0x0, 0x38, 0x0, 0x80, 0x1, 0x0, 0x0, 0x0, 0x0, 0x2, 0x10, 0x0, 0x0, 0x0, 0x0, 0x0, 0x0, 0xe, 0x0, 0x0, 0x0, 0x0, 0xfe, 
	0xff, 0xff, 0xff, 0xff, 0xff, 0xff, 0xff, 0xff, 0xff, 0xff, 0xff, 0xff, 0xff, 0xff, 0xff, 0xff, 0xff, 0xff, 0xff, 0xff, 0xff, 0xff, 0xff, 0xff, 0xff, 0xff, 0xff, 0xff, 
	0xff, 0xff, 0xff, 0xff, 0xff, 0xff, 0xff, 0xff, 0xff, 0xff, 0xff, 0xff, 0xff, 0xff, 0xff, 0xff, 0xff, 0xff, 0xff, 0xff, 0xff, 0xff, 0xff, 0xff, 0xff, 0xff, 0xff, 0xff, 
	0xff, 0xff, 0xff, 0xff, 0xff, 0xff, 0xff, 0xff, 0xff, 0xff, 0xff, 0xff, 0xff, 0xff, 0xff, 0xff, 0xff, 0xff, 0xff, 0xff, 0xff, 0xff, 0xff, 0xff, 0xff, 0xff, 0xff, 0xff, 
	0xff, 0xff, 0xff, 0xff, 0xff, 0xff, 0xff, 0xff, 0xff, 0xff, 0xff, 0xff, 0xff, 0xff, 0xff, 0xff, 0xff, 0xff, 0xff, 0xff, 0xff, 0xff, 0xff, 0xff, 0xff, 0xff, 0xff, 0xff, 
	0xff, 0xff, 0xff, 0xff, 0xff, 0xff, 0xff, 0xff, 0xff, 0xff, 0xff, 0xff, 0xff, 0xff, 0xff, 0xff, 0xff, 0xff, 0xff, 0xff, 0xff, 0xff, 0xff, 0xff, 0xff, 0xff, 0xff, 0xff, 
	0xff, 0xff, 0xff, 0xff, 0xff, 0xff, 0xff, 0xff, 0xff, 0xff, 0xff, 0xff, 0xff, 0xff, 0xff, 0xff, 0xff, 0xff, 0xff, 0xff, 0xff, 0xff, 0xff, 0xff, 0xff, 0xff, 0xff, 0xff, 
	0xff, 0xff, 0xff, 0xff, 0xff, 0xff, 0xff, 0xff, 0xff, 0xff, 0xff, 0xff, 0xff, 0xff, 0xff, 0xff, 0xff, 0xff, 0xff, 0xff, 0xff, 0xff, 0xff, 0xff, 0xff, 0xff, 0xff, 0xff, 
	0xff, 0xff, 0xff, 0xff, 0xff, 0xff, 0xff, 0xff, 0xff, 0xff, 0xff, 0xff, 0xff, 0xff, 0xff, 0xff, 0xff, 0xff, 0xff, 0xff, 0xff, 0xff, 0xff, 0xff, 0xff, 0xff, 0xff, 0xff, 
	0xff, 0xff, 0xff, 0xff, 0xff, 0xff, 0xff, 0xff, 0xff, 0xff, 0xff, 0xff, 0xff, 0xff, 0xff, 0xff, 0xff, 0xff, 0xff, 0xff, 0xff, 0xff, 0xff, 0xff, 0xff, 0xff, 0xff, 0xff, 
	0xff, 0xff, 0xff, 0xff, 0xff, 0xff, 0xff, 0xff, 0xff, 0xff, 0xff, 0xff, 0xff, 0xff, 0xff, 0xff, 0xff, 0xff, 0xff, 0xff, 0xff, 0xff, 0xff, 0xff, 0xff, 0xff, 0xff, 0xff, 
	0xff, 0xff, 0xff, 0xff, 0xff, 0xff, 0xff, 0xff, 0xff, 0xff, 0xff, 0xff, 0xff, 0xff, 0xff, 0xff, 0xff, 0xff, 0xff, 0xff, 0xff, 0xff, 0xff, 0xff, 0xff, 0xff, 0xff, 0xff, 
	0xff, 0xff, 0xff, 0xff, 0xff, 0xff, 0xff, 0xff, 0xff, 0xff, 0xff, 0xff, 0xff, 0xff, 0xff, 0xff, 0xff, 0xff, 0xff, 0xff, 0xff, 0xff, 0xff, 0xff, 0xff, 0xff, 0xff, 0xff, 
	0xff, 0xff, 0xff, 0xff, 0xff, 0xff, 0xff, 0xff, 0xff, 0xff, 0xff, 0xff, 0xff, 0xff, 0xff, 0xff, 0xff, 0xff, 0xff, 0xff, 0xff, 0xff, 0xff, 0xff, 0xff, 0xff, 0xff, 0xff, 
	0x0, 0x0, 0x0, 0x0, 0x0, 0x0, 0x0, 0x0, 0x0, 0x6, 0x0, 0x0, 0x0, 0x0, 0x0, 0x0, 0x0, 0x0, 0x0, 0x0, 0x0, 0x0, 0x0, 0x0, 0x0, 0x0, 0x18, 0x0, 
	0x0, 0x0, 0x0, 0x6, 0x10, 0x21, 0x18, 0x14, 0x0, 0x8, 0x0, 0x0, 0x0, 0x7c, 0x18, 0x0, 0x6, 0x3, 0x1, 0xf0, 0x0, 0x0, 0x4, 0x6, 0x40, 0x20, 0x24, 0x10, 
	0x0, 0x4, 0x0, 0x9, 0x10, 0x21, 0x24, 0x14, 0xe, 0xe, 0x0, 0x0, 0x70, 0x0, 0x24, 0x0, 0x89, 0x84, 0x0, 0xb8, 0x0, 0x0, 0x6, 0x9, 0x60, 0x30, 0x10, 0x10, 
	0x0, 0x4, 0x2, 0x29, 0xa4, 0x20, 0x4, 0x0, 0x11, 0x9, 0x0, 0x0, 0x88, 0x0, 0x24, 0x0, 0x8, 0x4, 0x10, 0xb9, 0x0, 0x0, 0x5, 0x9, 0x50, 0x2c, 0x22, 0x1, 
	0x0, 0x0, 0x7, 0xc1, 0xa3, 0x20, 0x8, 0x80, 0x2c, 0xe, 0x0, 0x0, 0x34, 0x1, 0x18, 0x0, 0x4, 0x3, 0x10, 0xb9, 0x0, 0x0, 0x4, 0x6, 0x40, 0x22, 0xa5, 0x0, 
	0x0, 0x84, 0xa, 0x41, 0xa2, 0x0, 0x14, 0x80, 0x22, 0x0, 0x0, 0x0, 0x54, 0x1, 0x0, 0x4, 0x2, 0x4, 0x10, 0xb9, 0x0, 0x0, 0x4, 0x0, 0x40, 0xa1, 0x58, 0x10, 
	0x0, 0x84, 0x82, 0x47, 0xf2, 0x1, 0x24, 0x80, 0x22, 0x8f, 0x4, 0x0, 0x54, 0x1, 0x0, 0x4, 0x81, 0x4, 0x10, 0xb1, 0x30, 0x0, 0x4, 0x4f, 0x82, 0x40, 0x20, 0x18, 
	0x0, 0x84, 0x2, 0xc1, 0x43, 0x0, 0x24, 0x80, 0x22, 0x40, 0xe2, 0xe3, 0x34, 0x1, 0x0, 0x1f, 0xf, 0x3, 0x10, 0xa1, 0x30, 0x0, 0x4, 0x80, 0x44, 0xa2, 0x91, 0x4, 
	0x0, 0x84, 0x2, 0x21, 0xf4, 0x21, 0x28, 0x80, 0x22, 0x40, 0x2, 0x2, 0x54, 0x1, 0x0, 0x4, 0x0, 0x0, 0x10, 0xa1, 0x0, 0x0, 0x0, 0x80, 0x24, 0x53, 0xca, 0x44, 
	0x22, 0x84, 0x8a, 0x8, 0x40, 0x20, 0x10, 0x80, 0x2c, 0x80, 0x4, 0x2, 0x54, 0x1, 0x0, 0x4, 0x0, 0x0, 0xb0, 0xa1, 0x0, 0x0, 0x0, 0x40, 0x92, 0xa, 0xa6, 0x44, 
	0x3e, 0x4, 0xc7, 0xf, 0x40, 0x20, 0x20, 0x0, 0x11, 0x0, 0x0, 0x2, 0x88, 0x0, 0x0, 0x1f, 0x0, 0x0, 0x50, 0xa1, 0x0, 0x0, 0x0, 0x0, 0x80, 0x7, 0xe1, 0x39, 
	0x0, 0x0, 0x2, 0x0, 0x0, 0x20, 0x24, 0x0, 0xe, 0x0, 0x0, 0x0, 0x70, 0x0, 0x0, 0x0, 0x0, 0x0, 0x10, 0x1, 0x0, 0x8, 0x0, 0x0, 0x0, 0x82, 0x80, 0x0, 
	0x0, 0x0, 0x0, 0x0, 0x0, 0x0, 0x18, 0x0, 0x0, 0x0, 0x0, 0x0, 0x0, 0x0, 0x0, 0x0, 0x0, 0x0, 0x10, 0x0, 0x0, 0x4, 0x0, 0x0, 0x0, 0xc2, 0x83, 0x0, 
	0x8, 0x8, 0x6, 0x45, 0xc2, 0x0, 0x0, 0x4, 0x4, 0x82, 0x42, 0x40, 0x20, 0x28, 0x0, 0xa, 0x1, 0x81, 0xa0, 0x50, 0x0, 0x0, 0x2, 0x2, 0x41, 0x41, 0x0, 0x0, 
	0x10, 0x4, 0x89, 0x42, 0x22, 0x1, 0x38, 0x8, 0x2, 0x85, 0x82, 0x20, 0x50, 0x28, 0x0, 0x5, 0x82, 0x40, 0x51, 0x50, 0x0, 0x0, 0x4, 0x81, 0x42, 0x21, 0x0, 0x0, 
	0x0, 0x0, 0x0, 0x0, 0x20, 0xc1, 0x45, 0x0, 0x0, 0x0, 0x0, 0x0, 0x0, 0x0, 0xe, 0x0, 0x0, 0x0, 0x0, 0x0, 0x0, 0x5c, 0x0, 0x0, 0x0, 0x0, 0x8, 0x18, 
	0x18, 0xc, 0x6, 0x83, 0xc1, 0x60, 0x4, 0x3e, 0x9f, 0xcf, 0xe7, 0xf3, 0xf9, 0x7c, 0x12, 0x11, 0x87, 0xc3, 0xe1, 0x70, 0x0, 0x22, 0x91, 0x48, 0x24, 0x12, 0x9, 0x24, 
	0x18, 0xc, 0x6, 0x83, 0xc1, 0x60, 0x4, 0x2, 0x81, 0x40, 0x80, 0x40, 0x20, 0x10, 0x22, 0x93, 0x48, 0x24, 0x12, 0x89, 0x44, 0x32, 0x91, 0x48, 0x24, 0x12, 0x79, 0x24, 
	0x24, 0x12, 0x89, 0x44, 0x22, 0x51, 0x4, 0x2, 0x81, 0x40, 0x80, 0x40, 0x20, 0x10, 0x22, 0x93, 0x48, 0x24, 0x12, 0x89, 0x28, 0x32, 0x91, 0x48, 0x24, 0xa2, 0x88, 0x14, 
	0x24, 0x12, 0x89, 0x44, 0x22, 0xd1, 0x5, 0x1e, 0x8f, 0xc7, 0x83, 0x40, 0x20, 0x10, 0x27, 0x95, 0x48, 0x24, 0x12, 0x89, 0x10, 0x2a, 0x91, 0x48, 0x24, 0xa2, 0x88, 0x34, 
	0x3c, 0x1e, 0x8f, 0xc7, 0xe3, 0x71, 0x4, 0x2, 0x81, 0x40, 0x80, 0x40, 0x20, 0x10, 0x22, 0x95, 0x48, 0x24, 0x12, 0x89, 0x28, 0x26, 0x91, 0x48, 0x24, 0x42, 0x88, 0x44, 
	0x42, 0xa1, 0x50, 0x28, 0x14, 0x4a, 0x4, 0x2, 0x81, 0x40, 0x80, 0x40, 0x20, 0x10, 0x22, 0x99, 0x48, 0x24, 0x12, 0x89, 0x44, 0x26, 0x91, 0x48, 0x24, 0x42, 0x88, 0x44, 
	0x42, 0xa1, 0x50, 0x28, 0x14, 0x4a, 0x44, 0x2, 0x81, 0x40, 0x80, 0x40, 0x20, 0x10, 0x12, 0x99, 0x48, 0x24, 0x12, 0x89, 0x0, 0x22, 0x91, 0x48, 0x24, 0x42, 0x78, 0x44, 
	0x42, 0xa1, 0x50, 0x28, 0x14, 0xca, 0x39, 0x3e, 0x9f, 0xcf, 0xe7, 0xf3, 0xf9, 0x7c, 0xe, 0x11, 0x87, 0xc3, 0xe1, 0x70, 0x0, 0x1d, 0xe, 0x87, 0xc3, 0x41, 0x8, 0x24, 
	0x0, 0x0, 0x0, 0x0, 0x0, 0x0, 0x10, 0x0, 0x0, 0x0, 0x0, 0x0, 0x0, 0x0, 0x0, 0x0, 0x0, 0x0, 0x0, 0x0, 0x0, 0x0, 0x0, 0x0, 0x0, 0x0, 0x8, 0x0, 
	0x0, 0x0, 0x0, 0x0, 0x0, 0x0, 0x8, 0x0, 0x0, 0x0, 0x0, 0x0, 0x0, 0x0, 0x0, 0x0, 0x0, 0x0, 0x0, 0x0, 0x0, 0x0, 0x0, 0x0, 0x0, 0x0, 0x0, 0x0, 
	0x0, 0x0, 0x0, 0x0, 0x40, 0x0, 0x0, 0x0, 0x0, 0x0, 0x0, 0x0, 0x0, 0x0, 0x0, 0x0, 0x0, 0x0, 0x0, 0x0, 0x0, 0x0, 0x0, 0x0, 0x0, 0x0, 0x0, 0x0, 
	0x4, 0x8, 0x2, 0x45, 0xa1, 0x0, 0x0, 0x4, 0x8, 0x82, 0x42, 0x80, 0x20, 0x28, 0x12, 0x14, 0x1, 0x82, 0x40, 0x51, 0x0, 0x0, 0x2, 0x4, 0x41, 0x81, 0x8, 0x0, 
	0x8, 0x4, 0x85, 0x42, 0x41, 0x0, 0x0, 0x8, 0x4, 0x85, 0x82, 0x40, 0x50, 0x28, 0xc, 0xa, 0x2, 0x41, 0xa1, 0x50, 0x0, 0x0, 0x4, 0x82, 0x42, 0x41, 0x8, 0x0, 
	0x0, 0x0, 0x0, 0x0, 0x0, 0x0, 0x0, 0x0, 0x0, 0x0, 0x0, 0x0, 0x0, 0x0, 0xa, 0x0, 0x0, 0x0, 0x0, 0x0, 0x10, 0x0, 0x0, 0x0, 0x0, 0x0, 0x68, 0x0, 
	0x1c, 0xe, 0x87, 0xc3, 0xe1, 0xd8, 0x38, 0x1c, 0xe, 0x87, 0xc3, 0x60, 0x30, 0x18, 0x18, 0xd, 0x87, 0xc3, 0xe1, 0x70, 0x10, 0x5c, 0x91, 0x48, 0x24, 0x12, 0x99, 0x0, 
	0x20, 0x10, 0x8, 0x4, 0x2, 0x21, 0x45, 0x22, 0x91, 0x48, 0x84, 0x40, 0x20, 0x10, 0x14, 0x93, 0x48, 0x24, 0x12, 0x89, 0x0, 0x22, 0x91, 0x48, 0x24, 0x12, 0x89, 0x0, 
	0x20, 0x10, 0x8, 0x4, 0x2, 0x21, 0x5, 0x22, 0x91, 0x48, 0x84, 0x40, 0x20, 0x10, 0x22, 0x91, 0x48, 0x24, 0x12, 0x89, 0x7c, 0x32, 0x91, 0x48, 0x24, 0x12, 0x89, 0x0, 
	0x3c, 0x1e, 0x8f, 0xc7, 0xe3, 0xf9, 0x4, 0x3e, 0x9f, 0xcf, 0x87, 0x40, 0x20, 0x10, 0x22, 0x91, 0x48, 0x24, 0x12, 0x89, 0x0, 0x2a, 0x91, 0x48, 0x24, 0x12, 0x89, 0x0, 
	0x22, 0x91, 0x48, 0x24, 0x12, 0x25, 0x4, 0x2, 0x81, 0x40, 0x80, 0x40, 0x20, 0x10, 0x22, 0x91, 0x48, 0x24, 0x12, 0x89, 0x10, 0x26, 0x91, 0x48, 0x24, 0x12, 0x89, 0x0, 
	0x22, 0x91, 0x48, 0x24, 0x12, 0x25, 0x44, 0x2, 0x81, 0x40, 0x80, 0x40, 0x20, 0x10, 0x22, 0x91, 0x48, 0x24, 0x12, 0x89, 0x10, 0x22, 0x99, 0x4c, 0x26, 0x93, 0x99, 0x0, 
	0x3c, 0x1e, 0x8f, 0xc7, 0xe3, 0xd9, 0x38, 0x3c, 0x1e, 0x8f, 0xc7, 0xe1, 0x70, 0x38, 0x1c, 0x11, 0x87, 0xc3, 0xe1, 0x70, 0x0, 0x1d, 0x16, 0x8b, 0xc5, 0x62, 0x69, 0x0, 
	0x0, 0x0, 0x0, 0x0, 0x0, 0x0, 0x10, 0x0, 0x0, 0x0, 0x0, 0x0, 0x0, 0x0, 0x0, 0x0, 0x0, 0x0, 0x0, 0x0, 0x0, 0x0, 0x0, 0x0, 0x0, 0x0, 0x9, 0x0, 
	0x0, 0x0, 0x0, 0x0, 0x0, 0x0, 0x8, 0x0, 0x0, 0x0, 0x0, 0x0, 0x0, 0x0, 0x0, 0x0, 0x0, 0x0, 0x0, 0x0, 0x0, 0x0, 0x0, 0x0, 0x0, 0xe0, 0x8, 0x0, 
	0x0, 0x0, 0x0, 0x0, 0x0, 0x0, 0x0, 0x0, 0x0, 0x0, 0x0, 0x0, 0x0, 0x0, 0x0, 0x0, 0x0, 0x0, 0x0, 0x0, 0x0, 0x0, 0x0, 0x0, 0x0, 0x0, 0x0, 0x0, 
	0x0, 0x0, 0x0, 0x0, 0x0, 0x0, 0x0, 0x0, 0x0, 0x0, 0x0, 0x0, 0x0, 0x0, 0x0, 0x0, 0x0, 0x0, 0x0, 0x0, 0x0, 0x0, 0x0, 0x0, 0x0, 0x0, 0x0, 0x0, 
	0x0, 0x0, 0x0, 0x0, 0x0, 0x0, 0x0, 0x0, 0x0, 0x0, 0x0, 0x0, 0x0, 0x0, 0x0, 0x0, 0x0, 0x0, 0x0, 0x0, 0x0, 0x0, 0x0, 0x0, 0x0, 0x0, 0x0, 0x0, 
	0x0, 0x0, 0x0, 0x0, 0x0, 0x0, 0x0, 0x0, 0x0, 0x0, 0x0, 0x0, 0x0, 0x0, 0x0, 0x0, 0x0, 0x0, 0x0, 0x0, 0x0, 0x0, 0x0, 0x0, 0x0, 0x0, 0x0, 0x0, 
	0x0, 0x0, 0x0, 0x0, 0x0, 0x0, 0x0, 0x0, 0x0, 0x0, 0x0, 0x0, 0x0, 0x0, 0x0, 0x0, 0x0, 0x0, 0x0, 0x0, 0x0, 0x0, 0x0, 0x0, 0x0, 0x0, 0x0, 0x0, 
	0x0, 0x0, 0x0, 0x0, 0x0, 0x0, 0x0, 0x0, 0x0, 0x0, 0x0, 0x0, 0x0, 0x0, 0x0, 0x0, 0x0, 0x0, 0x0, 0x0, 0x0, 0x0, 0x0, 0x0, 0x0, 0x0, 0x0, 0x0, 
	0x0, 0x0, 0x0, 0x0, 0x0, 0x0, 0x0, 0x0, 0x0, 0x0, 0x0, 0x0, 0x0, 0x0, 0x0, 0x0, 0x0, 0x0, 0x0, 0x0, 0x0, 0x0, 0x0, 0x0, 0x0, 0x0, 0x0, 0x0, 
	0x0, 0x0, 0x0, 0x0, 0x0, 0x0, 0x0, 0x0, 0x0, 0x0, 0x0, 0x0, 0x0, 0x0, 0x0, 0x0, 0x0, 0x0, 0x0, 0x0, 0x0, 0x0, 0x0, 0x0, 0x0, 0x0, 0x0, 0x0, 
	0x0, 0x0, 0x0, 0x0, 0x0, 0x0, 0x0, 0x0, 0x0, 0x0, 0x0, 0x0, 0x0, 0x0, 0x0, 0x0, 0x0, 0x0, 0x0, 0x0, 0x0, 0x0, 0x0, 0x0, 0x0, 0x0, 0x0, 0x0, 
	0x0, 0x0, 0x0, 0x0, 0x0, 0x0, 0x0, 0x0, 0x0, 0x0, 0x0, 0x0, 0x0, 0x0, 0x0, 0x0, 0x0, 0x0, 0x0, 0x0, 0x0, 0x0, 0x0, 0x0, 0x0, 0x0, 0x0, 0x0, 
	0x0, 0x0, 0x0, 0x0, 0x0, 0x0, 0x0, 0x0, 0x0, 0x0, 0x0, 0x0, 0x0, 0x0, 0x0, 0x0, 0x0, 0x0, 0x0, 0x0, 0x0, 0x0, 0x0, 0x0, 0x0, 0x0, 0x0, 0x0, 
	0x0, 0x0, 0x0, 0x0, 0x0, 0x0, 0x0, 0x0, 0x0, 0x0, 0x0, 0x0, 0x0, 0x0, 0x0, 0x0, 0x0, 0x0, 0x0, 0x0, 0x0, 0x0, 0x0, 0x0, 0x0, 0x0, 0x0, 0x0, 
	0x0, 0x0, 0x0, 0x0, 0x0, 0x0, 0x0, 0x0, 0x0, 0x0, 0x0, 0x0, 0x0, 0x0, 0x0, 0x0, 0x0, 0x0, 0x0, 0x0, 0x0, 0x0, 0x0, 0x0, 0x0, 0x0, 0x0, 0x0, 

};
